<svg xmlns="http://www.w3.org/2000/svg" version="1.1" xmlns:xlink="http://www.w3.org/1999/xlink" preserveAspectRatio="none" x="0px" y="0px" width="193px" height="32px" viewBox="0 0 193 32">
<defs>
<g id="Layer0_0_FILL">
<path fill="#000000" stroke="none" d="
M 18.8 3.95
Q 15.8 0.35 10.15 0.35
L 0 0.35 0 25.5 10.05 25.5
Q 21.75 25.5 21.75 12.85 21.75 7.35 18.8 3.95
M 10.3 21.4
L 4.55 21.4 4.55 4.45 10.3 4.45
Q 13.55 4.45 15.3 6.65 17.2 8.9 17.2 12.85 17.2 21.4 10.3 21.4
M 22.9 16.6
Q 22.9 21.05 25.25 23.5 27.45 25.85 31.2 25.85 37.65 25.85 39.05 20.55
L 35.65 19.3
Q 34.6 22.3 31.35 22.3 27.1 22.3 26.75 17.4
L 39.05 17.4
Q 39.15 7.35 31.1 7.35 27.35 7.35 25.15 9.8 22.9 12.4 22.9 16.6
M 34.95 14.35
L 26.9 14.35
Q 27.6 10.5 31.1 10.5 34.35 10.5 34.95 14.35
M 57.4 25.5
L 61.4 25.5 61.4 7.7 57.4 7.7 57.4 25.5
M 45.5 13.9
Q 44.55 13.55 44.55 12.6 44.55 10.75 47.7 10.75 50.5 10.75 52.15 13.1
L 54.95 11
Q 52.5 7.25 47.35 7.25 40.7 7.25 40.7 12.6 40.7 15.4 42.65 16.7 43.95 17.55 47.35 18.35 49.7 18.6 50.5 19.05 51.55 19.4 51.55 20.45 51.55 22.45 48.05 22.45 44.8 22.45 42.9 19.4
L 40 21.25
Q 42.2 26.05 48.3 26.05 55.4 26.05 55.4 20.45 55.3 15.3 48.5 14.6 46.2 14.25 45.5 13.9
M 61.6 4.65
L 61.6 0.25 57.3 0.25 57.3 4.65 61.6 4.65
M 86.05 10.75
L 86.05 7.8 79.6 7.8
Q 77.5 7.8 76.6 9.95 75.05 7.6 70.95 7.6 67.9 7.6 66.05 9.25 64.2 11 64.2 13.9 64.2 16.7 66.3 18.35 63.15 19.05 63.15 21.6 63.15 24.2 66.05 24.9 62.9 25.85 62.9 27.95 62.9 31.9 71.3 31.9 80.2 31.9 80.2 26.65 80.2 23.85 78.2 22.8 76.95 21.95 71.9 21.95 68.5 21.95 67.45 21.75 66.4 21.6 66.4 20.9 66.4 19.75 68.4 19.75
L 70.85 19.85
Q 77.75 19.85 77.75 14
L 77.65 12.6
Q 77.65 11 79.5 11
L 82.05 11 82.05 25.5 86.05 25.5 86.05 16.15
Q 86.05 10.85 90.5 10.85 93.75 10.85 93.75 14.7
L 93.75 25.5 97.85 25.5 97.85 13.65
Q 97.85 10.5 95.75 8.75 94 7.35 91.65 7.35 87.8 7.35 86.05 10.75
M 71.2 10.5
Q 72.7 10.5 73.55 11.45 74.35 12.4 74.35 13.65 74.35 16.6 71.2 16.6 67.8 16.6 67.8 13.65 67.8 10.5 71.2 10.5
M 71.2 25.5
Q 75.15 25.5 75.85 25.7 76.45 25.85 76.45 26.9 76.45 28.65 71.55 28.65 66.5 28.65 66.5 27 66.5 26.05 67.55 25.7 68.5 25.5 71.2 25.5
M 116.45 20
L 112.8 7.7 108.75 7.7 105.1 20 101.95 7.7 97.85 7.7 102.75 25.5 106.95 25.5 110.7 12.25 114.2 25.5 118.45 25.5 124.05 7.7 119.95 7.7 116.45 20
M 138.4 9.8
Q 136.1 7.25 132.2 7.25 128.35 7.25 126.05 9.7 123.55 12.25 123.55 16.7 123.55 20.9 125.9 23.5 128.25 26.05 132.2 26.05 136.2 26.05 138.4 23.6 140.65 21.25 140.65 16.7 140.75 12.4 138.4 9.8
M 136.55 16.6
Q 137 22.8 132 22.8 127.55 22.8 127.55 16.25 127.55 10.4 132.2 10.4 136.55 10.4 136.55 16.6
M 152.2 11.55
L 153.6 7.6
Q 152.8 7.25 151.75 7.25 147.9 7.35 146.25 10.5
L 146.25 7.7 142.3 7.7 142.3 25.5 146.35 25.5 146.35 16.6
Q 146.35 11.35 150.8 11.35
L 152.2 11.55
M 170 7.7
L 165.45 7.7 158.2 15.65 158.2 0.1 154.2 0.1 154.2 25.5 158.2 25.5 158.2 20.45 161 17.55 165.8 25.5 170.55 25.5 163.8 14.7 170 7.7
M 177.45 7.25
Q 174.45 7.25 172.7 8.55 170.7 9.95 170.7 12.6 170.7 15.4 172.7 16.7 173.95 17.55 177.45 18.35 179.8 18.6 180.65 19.05 181.55 19.4 181.55 20.45 181.55 22.45 178.15 22.45 174.65 22.45 173.05 19.4
L 170 21.25
Q 172.2 26.05 178.3 26.05 185.4 26.05 185.4 20.45 185.4 15.3 178.5 14.6 176.2 14.25 175.5 13.9 174.55 13.55 174.55 12.6 174.55 10.75 177.7 10.75 180.5 10.75 182.15 13.1
L 185.05 11
Q 182.5 7.25 177.45 7.25
M 186.8 21.4
Q 185.9 22.3 185.9 23.6 185.9 24.9 186.8 25.85 187.75 26.75 189.05 26.75 190.35 26.75 191.25 25.85 192.2 24.9 192.2 23.6 192.2 22.3 191.25 21.4 190.35 20.45 189.05 20.45 187.75 20.45 186.8 21.4
M 189.15 21.6
Q 191.05 21.6 191.05 23.5 191.05 25.5 189.15 25.5
L 187.65 25.5 187.65 21.6 189.15 21.6
M 190.2 23.6
Q 190.45 22.3 189.15 22.3
L 188.35 22.3 188.35 24.9 189.15 24.9
Q 190.2 24.9 190.2 23.6 Z"/>
</g>
</defs>

<g transform="matrix( 1, 0, 0, 1, 0,0) ">
<use xlink:href="#Layer0_0_FILL"/>
</g>
</svg>